<svg width="77" height="27" viewBox="0 0 77 27" fill="none" xmlns="http://www.w3.org/2000/svg">
<g clip-path="url(#clip0_818_195)">
<path d="M33.2762 16.2504C32.5166 17.9984 31.1982 18.9728 29.3066 19.1877C29.0916 19.2163 28.8767 19.2163 28.6617 19.2306C28.6331 19.2306 28.6044 19.2306 28.5757 19.2306C27.9739 19.2306 27.372 19.159 26.7988 18.9871C26.0679 18.7865 25.4231 18.4426 24.8212 17.9841C24.6635 17.8694 24.5059 17.7548 24.334 17.6689C24.162 17.5686 24.0617 17.6116 23.9614 17.7691C23.8897 17.8838 23.8181 17.9984 23.7464 18.0987C23.6891 18.1704 23.6175 18.2707 23.5458 18.2994C23.4455 18.3423 23.3022 18.3567 23.2305 18.3137C23.1589 18.2707 23.1016 18.1131 23.1016 18.0271C23.2305 16.5082 23.3881 15.0038 23.5314 13.4849C23.5601 13.2413 23.5601 13.2413 23.8037 13.2557C24.2193 13.27 24.2193 13.27 24.2337 13.6712C24.291 14.9895 24.7638 16.1357 25.681 17.0814C26.8418 18.2707 28.762 18.6002 30.2667 17.8838C31.2699 17.4109 31.843 16.6085 31.9577 15.4909C32.0724 14.4163 31.8718 13.399 31.1409 12.5535C30.7253 12.0664 30.1808 11.7369 29.6219 11.4503C29.149 11.2067 28.6474 11.0205 28.1315 10.8198C26.9994 10.4043 25.8959 9.9458 24.9502 9.17207C24.0043 8.42698 23.5458 7.43831 23.3595 6.29204C23.2448 5.5183 23.1875 4.74457 23.4741 3.99948C24.119 2.26574 25.2655 1.0908 27.1713 0.775568C28.4181 0.574969 29.6219 0.718253 30.8113 1.11945C30.9832 1.17676 31.1409 1.24841 31.2985 1.33438C31.5135 1.43468 31.5994 1.42035 31.7715 1.26274C31.9147 1.13378 32.0724 0.990498 32.2444 0.890199C32.4163 0.775571 32.5309 0.832885 32.5597 1.03348C32.6026 1.27707 32.5883 1.53498 32.6169 1.77856C32.7029 2.69559 32.7889 3.61261 32.8892 4.52963C32.9179 4.7589 32.9322 4.98815 32.9465 5.2174C32.9609 5.37502 32.9036 5.46099 32.7459 5.48964C32.3877 5.56128 32.4306 5.60428 32.316 5.23173C31.9864 4.1571 31.4276 3.21141 30.5964 2.43767C29.9514 1.85021 29.1776 1.60662 28.3178 1.59229C27.7159 1.57796 27.1284 1.63528 26.5838 1.92185C25.7527 2.3517 25.3084 3.08246 25.1651 3.97083C25.0075 4.94516 25.1364 5.86219 25.8243 6.62159C26.2112 7.05146 26.7128 7.32369 27.2144 7.5816C28.0169 7.99713 28.9054 8.22639 29.7508 8.52729C30.3527 8.74222 30.9546 8.97147 31.5135 9.28669C32.9465 10.0891 33.6774 11.3643 33.8063 12.9835C33.8493 14.1011 33.7204 15.2043 33.2762 16.2504Z" fill="black"/>
<path d="M63.0538 8.54162V8.89983C63.0538 9.15775 63.0252 9.18641 62.7672 9.18641C62.6238 9.18641 62.4949 9.18641 62.3516 9.18641C61.8931 9.18641 61.549 9.37268 61.3628 9.80253C60.9759 10.7338 60.5746 11.6509 60.2021 12.5965C59.3565 14.6742 58.5253 16.7662 57.6942 18.8438C57.6369 18.9585 57.5509 19.1018 57.4362 19.159C57.207 19.2736 57.0064 19.2163 56.8773 18.9871C56.7628 18.7578 56.6767 18.4999 56.5908 18.2564C55.8455 16.0784 55.1004 13.8861 54.3552 11.6939C54.3409 11.6509 54.2836 11.6079 54.2549 11.5649C54.2119 11.6079 54.1689 11.6509 54.1403 11.6939C53.1658 13.9864 52.1914 16.279 51.2312 18.5715C51.1882 18.6718 51.1452 18.7865 51.0879 18.8868C50.9876 19.0874 50.8299 19.2163 50.6007 19.202C50.3857 19.1877 50.2997 19.0015 50.2424 18.8295C50.0704 18.3853 49.9128 17.9268 49.7408 17.4826C48.795 14.9178 47.8492 12.353 46.9034 9.78819C46.7458 9.387 46.4591 9.18641 45.972 9.17208C45.7713 9.17208 45.5564 9.17208 45.3557 9.17208C45.2125 9.17208 45.1408 9.11476 45.1551 8.95714C45.1694 8.78521 45.1694 8.62759 45.1551 8.45565C45.1408 8.29803 45.2124 8.24072 45.37 8.25505C45.8859 8.2837 46.4018 8.3267 46.9177 8.31237C47.7919 8.31237 48.6804 8.26938 49.5545 8.25505C49.8268 8.25505 49.8698 8.2837 49.8698 8.54162C49.8698 8.6849 49.8698 8.82819 49.8698 8.97148C49.8698 9.10043 49.8125 9.14341 49.6978 9.15775C49.6262 9.15775 49.5545 9.15775 49.4686 9.15775C49.2106 9.15775 49.0672 9.31535 49.096 9.57326C49.096 9.65924 49.1246 9.74521 49.1533 9.83119C49.7981 12.0091 50.4287 14.1727 51.0735 16.3363C51.0879 16.3937 51.1308 16.4367 51.1596 16.4796C51.1882 16.4367 51.2455 16.3937 51.2599 16.3363C52.0767 14.3733 52.8792 12.4247 53.696 10.4617C53.8966 9.96014 53.5097 9.32968 52.9795 9.31536C52.8218 9.30103 52.6642 9.30103 52.4923 9.31536C52.3633 9.31536 52.2917 9.25805 52.2917 9.11476C52.2917 8.97148 52.2917 8.84252 52.2917 8.69923C52.2917 8.42699 52.349 8.36968 52.6356 8.38401C53.0368 8.39834 53.438 8.44132 53.8394 8.44132C54.7421 8.42699 55.6449 8.41266 56.5478 8.38401C56.8344 8.38401 56.8917 8.41266 56.8917 8.71356C56.8917 8.84252 56.8917 8.97148 56.8917 9.11476C56.8917 9.24372 56.82 9.31536 56.6911 9.31536C56.5478 9.31536 56.4188 9.32968 56.2755 9.31536C55.9458 9.2867 55.7739 9.60193 55.8313 9.84552C55.9172 10.1751 56.0175 10.5047 56.1178 10.8342C56.6337 12.525 57.164 14.2014 57.6799 15.8921C57.6942 15.9494 57.7229 16.0211 57.7515 16.0784C57.7659 16.0784 57.7945 16.0784 57.8088 16.0784C57.8375 16.0354 57.8518 15.9781 57.8805 15.9351C58.5253 14.1584 59.1845 12.3673 59.8295 10.5905C59.9298 10.3184 59.9871 10.0175 60.0015 9.71655C60.0157 9.35834 59.8007 9.17208 59.4425 9.17208C58.9123 9.17208 58.9839 9.1864 58.9839 8.71356C58.9839 8.24072 58.9839 8.24072 59.4425 8.26938C60.5603 8.35535 61.6781 8.34103 62.7958 8.26938C63.0108 8.26938 63.0538 8.31236 63.0538 8.54162Z" fill="black"/>
<path d="M72.6258 17.2253C72.5972 17.2253 72.5685 17.2539 72.5398 17.2683C72.4969 17.3113 72.4538 17.3686 72.4108 17.4116C72.1386 17.6695 71.7946 17.8128 71.4364 17.7125C71.1068 17.6265 70.9921 17.3113 70.9492 17.0104C70.8918 16.6378 70.8489 16.251 70.8489 15.8642C70.8345 14.03 70.8489 12.196 70.8345 10.362C70.8345 10.0467 70.8058 9.70287 70.7055 9.40197C70.4475 8.64256 69.8313 8.25569 69.0718 8.12674C67.9255 7.92614 66.822 8.12674 65.7902 8.64256C65.1453 8.95779 64.5578 9.34465 64.0992 9.9178C63.7696 10.3477 63.5117 10.8061 63.526 11.3649C63.5403 11.9525 63.7266 12.1244 64.3142 12.0957C64.3428 12.0957 64.3571 12.0957 64.3859 12.0957C64.9733 12.0527 65.2886 11.7662 65.4033 11.1931C65.4749 10.8205 65.4319 10.4623 65.3746 10.1041C65.346 9.86048 65.4176 9.65988 65.5896 9.50227C65.6899 9.4163 65.8045 9.34465 65.9192 9.28734C66.4494 9.05808 66.994 8.92913 67.5672 9.0151C68.3553 9.12972 68.8282 9.45929 68.9429 10.319C69.0432 11.0068 69.0145 11.6945 69.0289 12.3966C69.0289 12.5256 69.0002 12.5973 68.8856 12.6545C68.3123 12.9554 67.7391 13.285 67.1659 13.5716C66.5354 13.8868 65.8905 14.1733 65.2599 14.5173C64.8301 14.7465 64.4574 15.0617 64.1851 15.4772C63.612 16.337 63.5976 17.2683 63.9272 18.1997C64.1135 18.7155 64.5148 19.0451 65.045 19.1167C65.6325 19.1883 66.2345 19.174 66.8076 18.9591C67.6961 18.6295 68.5417 18.214 69.1865 17.4546C69.2009 17.4832 69.2152 17.4832 69.2152 17.4976C69.2295 17.5406 69.2438 17.5979 69.2582 17.6409C69.4015 18.0994 69.6021 18.5292 70.0033 18.8301C70.9062 19.4892 72.5255 19.1454 73.0128 17.6982C73.0844 17.5549 72.7978 17.2111 72.6258 17.2253ZM68.6562 17.0821C68.2694 17.4832 67.8252 17.7555 67.2949 17.8987C66.4494 18.1137 65.7472 17.6122 65.7042 16.7525C65.6612 15.993 65.8905 15.3339 66.4924 14.8325C66.9366 14.46 67.4238 14.1447 67.9541 13.9012C68.3123 13.7435 68.6562 13.5429 69.0289 13.3423V13.5286C69.0289 14.4026 69.0145 15.2623 69.0289 16.1363C69.0432 16.5233 68.9142 16.8241 68.6562 17.0821Z" fill="black"/>
<path d="M44.6701 15.9054C44.4695 15.8051 44.3978 15.8194 44.2975 16.0057C43.5523 17.2952 41.9759 17.9544 40.5143 17.5675C39.4108 17.2809 38.723 16.5358 38.2501 15.5472C37.7771 14.5298 37.7198 13.4409 37.8201 12.3376C37.8345 12.1943 37.8774 12.1513 38.0351 12.1513C39.0382 12.1513 40.0414 12.1513 41.0444 12.1513C42.0189 12.1513 43.0077 12.1513 43.9822 12.1513C44.1112 12.1513 44.2401 12.137 44.3548 12.1227C44.6271 12.0797 44.7131 11.965 44.7131 11.6928C44.6987 11.1626 44.5411 10.6755 44.3262 10.2026C43.8819 9.21398 43.1941 8.46889 42.105 8.19665C41.0158 7.92442 39.9267 7.99605 38.9092 8.42591C37.6482 8.94174 36.817 9.9304 36.3297 11.1769C35.7423 12.6815 35.7709 14.2146 36.2008 15.7477C36.4874 16.7794 37.0463 17.6964 37.9491 18.3125C39.1099 19.1149 40.4282 19.3156 41.7897 19.0433C43.28 18.7568 44.2258 17.7537 44.8707 16.4498C45.014 16.1203 44.9854 16.0773 44.6701 15.9054ZM39.1386 9.31427C39.7834 8.82711 40.4999 8.65516 41.2738 8.95607C41.8614 9.17099 42.1765 9.65816 42.3485 10.2313C42.4202 10.4748 42.4345 10.7328 42.4632 10.9907C42.4918 11.1626 42.4059 11.2773 42.2482 11.3202C42.1193 11.3489 41.9903 11.3919 41.8614 11.3919C40.6002 11.3919 39.3392 11.3919 38.0781 11.3919C38.0351 11.3919 38.0065 11.3919 37.9348 11.3776C38.1784 10.5752 38.4507 9.8301 39.1386 9.31427Z" fill="black"/>
<path d="M76.2102 9.74389H75.981C75.9523 9.28538 75.938 8.8412 75.9093 8.38268C75.895 8.38268 75.8951 8.38268 75.8807 8.38268C75.7374 8.78388 75.594 9.18508 75.4507 9.58628C75.4221 9.64359 75.3648 9.72957 75.3075 9.74389C75.1785 9.77255 75.1928 9.65793 75.1642 9.58628C75.0351 9.21373 74.9206 8.8412 74.7916 8.46866C74.7772 8.44 74.7629 8.42567 74.7486 8.36835C74.7199 8.85553 74.6912 9.29971 74.6769 9.75822H74.4619C74.505 9.18508 74.5336 8.61195 74.5766 8.0388C74.8632 7.98149 74.8633 7.98149 74.9492 8.22507C75.0782 8.59762 75.2071 8.98448 75.3361 9.37135C75.4795 8.98448 75.6084 8.59762 75.7374 8.22507C75.8234 7.98149 75.8234 7.98149 76.1099 8.01015C76.1386 8.59761 76.1816 9.17075 76.2102 9.74389Z" fill="#6D6E71"/>
<path d="M74.3188 8.21012H73.8029V9.74327H73.5735V8.21012H73.0576V8.00952H74.3188C74.3044 8.08116 74.3188 8.13848 74.3188 8.21012Z" fill="#6D6E71"/>
<path d="M64.1998 25.3359C64.1998 25.4505 64.1568 25.4935 64.0565 25.4792C64.0134 25.4792 63.9704 25.4792 63.9418 25.4792C63.8128 25.4935 63.7698 25.4505 63.7698 25.3215C63.7698 24.9347 63.7842 24.5479 63.7698 24.1753C63.7698 23.989 63.7555 23.7884 63.7268 23.6021C63.6982 23.4015 63.5692 23.2726 63.3686 23.2296C63.1536 23.1867 62.9244 23.2153 62.8097 23.4158C62.7238 23.5591 62.6521 23.7455 62.6377 23.9174C62.6091 24.3902 62.6233 24.8487 62.6377 25.3215C62.6377 25.5078 62.5374 25.4935 62.4227 25.4792C62.3082 25.4792 62.1935 25.5078 62.2079 25.3215C62.2221 24.8917 62.2221 24.4762 62.2079 24.0463C62.2079 23.8744 62.1935 23.6881 62.1362 23.5162C62.0502 23.2583 61.8209 23.158 61.4913 23.201C61.2334 23.244 61.0614 23.4445 61.0614 23.7025C61.0614 24.2326 61.047 24.7484 61.0614 25.2785C61.0614 25.4935 60.9467 25.4505 60.8034 25.4648C60.6458 25.4792 60.6172 25.4218 60.6172 25.2643C60.6314 24.5479 60.6172 23.8171 60.6172 23.1007C60.6172 22.857 60.6172 22.857 60.8608 22.8714C60.9038 22.8714 60.9324 22.8714 60.9897 22.8857C61.0184 22.986 61.0327 23.072 61.0614 23.201C61.2764 22.943 61.5343 22.8141 61.8496 22.8284C62.1791 22.8284 62.4085 22.9717 62.5518 23.3013C62.6091 23.2296 62.6377 23.1867 62.6807 23.1437C62.9816 22.7711 63.5548 22.7137 63.8988 23.0147C64.1281 23.2153 64.1854 23.5018 64.1998 23.7884C64.2141 24.3186 64.1998 24.8344 64.1998 25.3359Z" fill="#6D6E71"/>
<path d="M25.953 22.9009C25.8383 23.3021 25.738 23.689 25.6234 24.0616C25.5088 24.4771 25.3797 24.9069 25.2652 25.3225C25.2365 25.4228 25.2078 25.4943 25.0788 25.4943C24.9641 25.48 24.8496 25.5087 24.8066 25.3368C24.6346 24.7493 24.4626 24.1618 24.2907 23.5887C24.2763 23.56 24.262 23.5313 24.2334 23.474C24.2047 23.5313 24.1904 23.5743 24.176 23.603C24.004 24.1904 23.8321 24.7637 23.6601 25.3511C23.6172 25.4943 23.5311 25.4943 23.4165 25.5087C23.3019 25.5087 23.2302 25.48 23.2016 25.3511C22.9866 24.5917 22.7573 23.8323 22.5424 23.0585C22.528 23.0155 22.528 22.9725 22.5137 22.9295C22.5424 22.9295 22.5566 22.9152 22.571 22.9152C22.9293 22.8865 22.9293 22.8865 23.0152 23.2448C23.1442 23.775 23.2732 24.2908 23.4022 24.8209C23.4022 24.8209 23.4166 24.8352 23.4308 24.8496C23.4452 24.8209 23.4595 24.8066 23.4739 24.7779C23.6458 24.2048 23.8178 23.6316 23.9897 23.0585C24.0328 22.9152 24.1187 22.9152 24.2334 22.9152C24.3623 22.9152 24.4196 22.9439 24.4483 23.0728C24.6202 23.6603 24.7922 24.2621 24.9642 24.8496C24.9642 24.8639 24.9785 24.8925 25.0072 24.9499C25.0358 24.8352 25.0502 24.7637 25.0788 24.6777C25.2078 24.1618 25.3368 23.6316 25.4514 23.1158C25.48 22.9439 25.5517 22.9009 25.7237 22.9152C25.7953 22.9009 25.8527 22.9009 25.953 22.9009Z" fill="#6D6E71"/>
<path d="M34.1926 22.9013C34.0923 23.2452 34.0064 23.5747 33.906 23.89C33.7627 24.3771 33.6194 24.8499 33.4905 25.3371C33.4617 25.4517 33.4188 25.5091 33.2899 25.4947C33.1752 25.4804 33.0749 25.5091 33.0319 25.3514C32.8599 24.764 32.6879 24.1765 32.5016 23.589C32.4873 23.5604 32.4729 23.5174 32.4443 23.4601C32.344 23.7753 32.2723 24.0762 32.172 24.3628C32.0717 24.6923 31.957 25.0076 31.8711 25.3371C31.8281 25.4947 31.7422 25.4804 31.6275 25.4804C31.5128 25.4804 31.4555 25.4661 31.4125 25.3371C31.1975 24.5634 30.9683 23.804 30.7533 23.0302C30.739 22.9873 30.739 22.9586 30.7246 22.8869C30.8536 22.8869 30.9683 22.8726 31.0829 22.8869C31.1259 22.8869 31.1689 22.9729 31.1833 23.0159C31.3266 23.589 31.4698 24.1622 31.6131 24.7353C31.6131 24.7496 31.6275 24.7783 31.6275 24.7926C31.6418 24.7926 31.6561 24.7926 31.6705 24.7926C31.7278 24.5921 31.7851 24.4058 31.8425 24.2052C31.9571 23.8183 32.0861 23.4171 32.2007 23.0302C32.2437 22.8869 32.301 22.8583 32.4443 22.8583C32.5876 22.8583 32.6449 22.9156 32.6736 23.0446C32.8455 23.6464 33.0319 24.2482 33.2325 24.8499C33.2468 24.8213 33.2755 24.7783 33.2899 24.7496C33.4188 24.1908 33.5621 23.6464 33.6767 23.0876C33.7197 22.9156 33.7914 22.8296 33.9633 22.8726C34.0493 22.9013 34.1067 22.9013 34.1926 22.9013Z" fill="#6D6E71"/>
<path d="M48.6949 22.9004C48.6232 23.1582 48.5516 23.3875 48.4943 23.6168C48.3366 24.1899 48.1646 24.7631 48.007 25.3219C47.9784 25.4365 47.921 25.4938 47.792 25.4795C47.6774 25.4795 47.5771 25.4795 47.534 25.3219C47.3765 24.7344 47.1901 24.1613 47.0181 23.5881C47.0039 23.5452 46.9895 23.5165 46.9609 23.4448C46.9322 23.5165 46.9178 23.5452 46.9036 23.5881C46.7316 24.1756 46.5596 24.7631 46.3877 25.3505C46.359 25.4652 46.2874 25.4938 46.1871 25.4795C46.101 25.4652 46.0007 25.5225 45.9577 25.3792C45.7285 24.5624 45.4848 23.7458 45.2412 22.9004C45.3845 22.9004 45.5135 22.886 45.6282 22.9004C45.6712 22.9004 45.6998 22.9864 45.7141 23.0437C45.8718 23.6311 46.0151 24.2329 46.1727 24.8347C46.1871 24.8061 46.2157 24.7774 46.23 24.7487C46.4019 24.1756 46.5739 23.6025 46.7459 23.0294C46.7889 22.9004 46.8606 22.8717 46.9752 22.886C47.0898 22.886 47.1615 22.886 47.2045 23.0294C47.3765 23.6168 47.5484 24.1899 47.7204 24.7631C47.7348 24.7917 47.749 24.8347 47.7777 24.9207C47.8351 24.6771 47.878 24.4908 47.921 24.3046C48.0213 23.9033 48.1216 23.5022 48.2076 23.0867C48.2363 22.929 48.3079 22.8717 48.4655 22.9004C48.5372 22.9004 48.5946 22.9004 48.6949 22.9004Z" fill="#6D6E71"/>
<path d="M30.0806 22.9004C29.9803 23.2443 29.8944 23.5739 29.794 23.889C29.6508 24.3763 29.5074 24.8491 29.3785 25.3362C29.3497 25.4509 29.3068 25.4939 29.1778 25.4939C29.0632 25.4796 28.9629 25.5082 28.9199 25.3506C28.7479 24.7631 28.576 24.1757 28.404 23.6025C28.3896 23.5739 28.3753 23.5309 28.3323 23.4736C28.2607 23.7172 28.2034 23.9464 28.146 24.1613C28.0314 24.5625 27.8881 24.9494 27.7878 25.3506C27.7448 25.4939 27.6731 25.5082 27.5442 25.5082C27.4295 25.5082 27.3578 25.4939 27.3149 25.3649C27.0999 24.5912 26.8706 23.8317 26.6557 23.0581C26.6413 23.0151 26.6413 22.9864 26.627 22.9148C26.756 22.9148 26.8706 22.9004 26.971 22.9148C27.0139 22.9148 27.0713 22.9864 27.0856 23.0294C27.2289 23.6025 27.3722 24.1757 27.5155 24.7631C27.5155 24.7918 27.5298 24.8061 27.5442 24.8778C27.5728 24.8204 27.5872 24.7775 27.6014 24.7488C27.7734 24.1757 27.9454 23.6025 28.1173 23.0294C28.146 22.9004 28.232 22.9148 28.3323 22.9148C28.4326 22.9148 28.5187 22.8861 28.5616 23.0294C28.7335 23.6312 28.9199 24.233 29.1061 24.8348C29.1061 24.8491 29.1205 24.8778 29.1349 24.9351C29.1635 24.8491 29.1778 24.8061 29.1922 24.7631C29.3355 24.19 29.4644 23.6025 29.6077 23.0294C29.622 22.9864 29.6937 22.9291 29.7511 22.9148C29.8514 22.8861 29.9517 22.9004 30.0806 22.9004Z" fill="#6D6E71"/>
<path d="M72.1422 23.2435C71.8556 22.7563 71.1678 22.699 70.7522 23.0858C70.7235 23.1145 70.6805 23.1575 70.6232 23.2005C70.5946 23.1288 70.5802 23.0858 70.5659 23.0428C70.5515 22.8423 70.4082 22.8996 70.2937 22.8996C70.1503 22.8996 70.2076 23.0142 70.2076 23.0858C70.2076 24.1176 70.2076 25.1635 70.2076 26.1952C70.2076 26.5104 70.2076 26.496 70.5229 26.496C70.6376 26.496 70.6805 26.4674 70.6662 26.3527C70.6662 26.1665 70.6662 25.9802 70.6662 25.7796V25.2351C70.7235 25.2781 70.7522 25.2925 70.7808 25.3211C71.2681 25.7223 71.9703 25.5934 72.2426 25.0345C72.5148 24.4327 72.4862 23.8166 72.1422 23.2435ZM71.87 24.7767C71.7267 25.1348 71.3827 25.2925 71.0102 25.1635C70.7808 25.0918 70.6662 24.92 70.6662 24.6763V24.1892C70.6662 24.0316 70.6519 23.8596 70.6662 23.6876C70.6805 23.5731 70.7235 23.4441 70.7952 23.3725C71.0961 23.0715 71.5833 23.1432 71.7839 23.5158C71.9989 23.9313 72.0276 24.3467 71.87 24.7767Z" fill="#6D6E71"/>
<path d="M51.5893 23.6171C51.5749 23.3735 51.489 23.173 51.2884 23.0296C50.9014 22.743 50.1849 22.8004 49.841 23.1443C49.7263 23.2589 49.6404 23.3878 49.669 23.5884C49.798 23.5884 49.9269 23.6028 50.0416 23.5741C50.0846 23.5598 50.0989 23.4451 50.1563 23.4021C50.228 23.3305 50.2995 23.2589 50.3856 23.2303C50.7295 23.1013 51.1881 23.2446 51.1737 23.7891C51.1737 23.9323 51.1307 24.0039 50.9731 23.9896C50.7868 23.9896 50.5862 23.9609 50.4142 24.0039C50.1992 24.0469 49.97 24.1186 49.7836 24.2332C49.5401 24.3909 49.4971 24.663 49.5401 24.9353C49.583 25.2219 49.7407 25.4225 50.0272 25.4941C50.3999 25.5944 50.7151 25.5228 51.0017 25.2648C51.0448 25.2219 51.1021 25.1789 51.1593 25.136C51.2454 25.5228 51.274 25.5371 51.618 25.4798V24.4625C51.5893 24.1759 51.5893 23.9037 51.5893 23.6171ZM50.3569 25.1646C50.1992 25.1503 50.0703 25.1073 49.9986 24.964C49.9269 24.8207 49.9413 24.663 50.0416 24.5342C50.1563 24.3765 50.3139 24.2905 50.5145 24.2905C50.6435 24.2905 50.7725 24.2905 50.9158 24.2905C51.1593 24.2905 51.1593 24.2905 51.1593 24.5485C51.2167 24.9067 50.7151 25.2076 50.3569 25.1646Z" fill="#6D6E71"/>
<path d="M37.0453 24.2767C37.4895 24.2911 37.9481 24.2767 38.4067 24.2767C38.5213 24.2767 38.5643 24.2481 38.5499 24.1334C38.5357 23.9901 38.5357 23.8611 38.5213 23.7179C38.464 23.288 38.2634 22.9728 37.8192 22.8725C37.3749 22.7579 36.9593 22.9012 36.6727 23.2737C36.4434 23.5746 36.4004 23.9185 36.4004 24.2911C36.4148 25.3943 37.3606 25.7811 38.2204 25.3943C38.4926 25.2797 38.507 25.208 38.3063 24.9645C38.3063 24.9645 38.292 24.9645 38.2777 24.9502C38.2204 24.9788 38.1631 25.0218 38.1057 25.0504C37.5039 25.38 36.9163 25.0934 36.8447 24.4629C36.8447 24.3197 36.8877 24.2767 37.0453 24.2767ZM36.9019 23.7752C36.988 23.503 37.1169 23.2737 37.4178 23.202C37.7905 23.116 38.1774 23.4886 38.1057 23.8611C38.0914 23.8898 38.034 23.9471 37.9911 23.9471C37.8192 23.9615 37.6615 23.9471 37.4895 23.9471C37.3319 23.9471 37.1886 23.9471 37.031 23.9471C36.8877 23.9471 36.859 23.9041 36.9019 23.7752Z" fill="#6D6E71"/>
<path d="M43.0057 24.276C43.3496 24.276 43.6936 24.276 44.0375 24.276C44.5391 24.276 44.5534 24.276 44.4961 23.7745C44.4674 23.4162 44.3098 23.0867 43.9516 22.9434C43.579 22.7858 43.2063 22.8001 42.8624 23.0437C42.5472 23.2873 42.4039 23.6169 42.3608 24.0037C42.3036 24.7058 42.5758 25.4796 43.4499 25.5369C43.8082 25.5656 44.1378 25.4939 44.4388 25.2217C44.3671 25.1214 44.3241 25.0354 44.2668 24.9638C44.1522 25.0211 44.0661 25.0784 43.9802 25.1214C43.3926 25.3649 42.9484 25.1071 42.8337 24.491C42.8051 24.3333 42.8481 24.276 43.0057 24.276ZM43.6506 23.2157C43.8942 23.2873 44.1091 23.6025 44.0661 23.8462C44.0661 23.8748 44.0232 23.9322 43.9946 23.9322C43.6219 23.9322 43.2493 23.9322 42.8624 23.9322C42.8481 23.4449 43.235 23.1011 43.6506 23.2157Z" fill="#6D6E71"/>
<path d="M59.5586 23.7167C59.4296 23.1866 59.0427 22.8713 58.5124 22.8426C57.9679 22.8283 57.5667 23.1006 57.3947 23.6307C57.2944 23.9459 57.2944 24.2898 57.3661 24.605C57.4806 25.1639 57.9106 25.5221 58.4695 25.5221C58.9854 25.5364 59.4153 25.2069 59.5586 24.6767C59.6016 24.5191 59.6016 24.3472 59.6303 24.1895C59.6016 24.0462 59.5872 23.8744 59.5586 23.7167ZM59.0283 24.8486C58.928 25.0923 58.7274 25.2068 58.4695 25.1926C58.2115 25.1926 58.0109 25.0779 57.8962 24.8486C57.6956 24.4188 57.6956 23.9746 57.8962 23.5447C58.0109 23.3155 58.1972 23.1866 58.4551 23.1866C58.7131 23.1866 58.9138 23.3011 59.0141 23.5447C59.1 23.7454 59.143 23.9746 59.2003 24.2039C59.143 24.4188 59.1144 24.648 59.0283 24.8486Z" fill="#6D6E71"/>
<path d="M69.0873 25.3504C69.0873 25.4507 69.0444 25.4937 68.944 25.4794C68.9011 25.4794 68.858 25.4794 68.8007 25.4794C68.6861 25.4937 68.6431 25.4364 68.6431 25.3217C68.6431 24.8203 68.6431 24.3188 68.6431 23.8315C68.6431 23.4877 68.5285 23.3014 68.2991 23.2298C68.0126 23.1438 67.6829 23.2441 67.511 23.502C67.4679 23.5594 67.4537 23.6454 67.4537 23.7313C67.4537 24.2615 67.4537 24.7773 67.4537 25.3074C67.4537 25.4507 67.4107 25.508 67.2673 25.4937C67.2387 25.4937 67.1957 25.4937 67.167 25.4937C67.0381 25.508 66.9951 25.465 66.9951 25.3217C66.9951 24.5766 66.9951 23.8172 66.9951 23.0722C66.9951 22.9576 67.0094 22.8859 67.1528 22.9003C67.2817 22.9146 67.4393 22.8573 67.425 23.0722C67.425 23.1294 67.4393 23.1724 67.4393 23.2298C67.4537 23.2441 67.4823 23.2584 67.4967 23.2728C67.511 23.2441 67.5253 23.2011 67.5396 23.1724C67.8119 22.8716 68.2132 22.7713 68.5858 22.9146C68.9011 23.0436 69.0444 23.2871 69.0586 23.6024C69.1017 24.1755 69.0873 24.7629 69.0873 25.3504Z" fill="#6D6E71"/>
<path d="M41.1441 25.365C40.6712 25.6516 39.9403 25.5799 39.6108 25.193C39.4961 25.064 39.4102 24.9208 39.4674 24.7058C39.5677 24.7058 39.6681 24.6915 39.7541 24.7058C39.7971 24.7058 39.8688 24.7632 39.8688 24.8062C39.9977 25.2503 40.6712 25.279 40.9148 25.0498C41.1012 24.8778 41.0725 24.6055 40.8432 24.4909C40.6712 24.405 40.485 24.3763 40.313 24.3047C40.141 24.2474 39.9691 24.19 39.8114 24.1041C39.4818 23.9178 39.4244 23.4736 39.6681 23.187C40.0264 22.7285 40.9006 22.7142 41.2731 23.1583C41.3018 23.2013 41.3448 23.2443 41.3591 23.2873C41.3877 23.3876 41.4021 23.5023 41.4165 23.6026C41.3018 23.6169 41.1871 23.6312 41.0582 23.6312C41.0295 23.6312 41.0009 23.5739 40.9865 23.5309C40.8432 23.2157 40.4276 23.0725 40.1553 23.273C40.055 23.3446 39.9833 23.4879 39.9691 23.6026C39.9547 23.7316 40.055 23.8461 40.1839 23.9034C40.3559 23.9608 40.5279 24.0037 40.6856 24.0467C40.8289 24.0897 40.9721 24.1471 41.1012 24.2044C41.6027 24.4336 41.531 25.1213 41.1441 25.365Z" fill="#6D6E71"/>
<path d="M56.4622 24.7063C56.4622 24.8925 56.3905 25.0645 56.2616 25.1935C55.9176 25.5516 55.4878 25.6233 55.0292 25.4658C54.5849 25.3225 54.3986 24.9642 54.3269 24.5344C54.2697 24.1762 54.2983 23.8323 54.4273 23.4884C54.7569 22.6573 55.8746 22.7003 56.2472 23.1588C56.3905 23.3308 56.4622 23.5171 56.4622 23.7463C56.3905 23.7463 56.3475 23.7463 56.3046 23.7606C56.1613 23.7749 56.0752 23.7463 56.0323 23.5743C55.9607 23.3165 55.7601 23.2018 55.5021 23.1875C55.2584 23.1731 55.0292 23.2591 54.9145 23.4884C54.6853 23.9469 54.6853 24.4341 54.9145 24.8925C55.0148 25.1075 55.2154 25.1935 55.459 25.1935C55.7027 25.1935 55.889 25.0932 56.018 24.8925C56.1469 24.6633 56.1613 24.649 56.4622 24.7063Z" fill="#6D6E71"/>
<path d="M35.2945 25.264C35.2945 25.479 35.2945 25.479 35.0653 25.479C34.8359 25.479 34.8359 25.479 34.8359 25.2497C34.8359 25.0205 34.8359 25.0205 35.0653 25.0205C35.2945 25.0205 35.2945 25.0204 35.2945 25.264Z" fill="#6D6E71"/>
<path d="M53.1949 25.2641C53.1949 25.479 53.1949 25.479 52.9657 25.479C52.7363 25.479 52.7363 25.479 52.7363 25.2211C52.7363 25.0062 52.7363 25.0062 52.98 25.0062C53.1949 25.0206 53.1949 25.0206 53.1949 25.2641Z" fill="#6D6E71"/>
<path d="M65.7929 25.2628C65.7929 25.4921 65.7929 25.4921 65.5636 25.4921C65.3486 25.4921 65.3486 25.4921 65.3486 25.2628C65.3486 25.0336 65.3486 25.0336 65.5636 25.0336C65.7929 25.0192 65.7929 25.0192 65.7929 25.2628Z" fill="#6D6E71"/>
<path d="M20.1038 11.4344C18.9574 11.4344 17.8109 11.4344 16.6645 11.4344C16.5355 11.4344 16.4926 11.4057 16.5068 11.2767C16.5212 11.0046 16.5068 10.7323 16.5068 10.4743C16.5212 10.1591 16.4782 9.82958 16.5212 9.51435C16.5785 9.47137 16.6358 9.50002 16.7075 9.50002C17.8395 9.50002 18.986 9.50002 20.1181 9.50002C20.1898 9.50002 20.2472 9.50003 20.3187 9.4857C20.2758 9.14181 20.2328 8.79793 20.1755 8.45404C19.9748 7.45105 19.6309 6.49104 19.1437 5.58834C18.5131 4.44207 17.7106 3.43907 16.7075 2.60802C15.4464 1.57637 14.0277 0.874272 12.4227 0.530388C11.1617 0.258146 9.88622 0.229489 8.62514 0.444416C6.28929 0.859942 4.31169 1.94891 2.764 3.7543C0.571448 6.3191 -0.188063 9.29942 0.485466 12.6093C1.04435 15.3317 2.53472 17.4524 4.85625 18.9854C6.11732 19.8309 7.5217 20.3323 9.0264 20.533C9.06938 20.533 9.12671 20.533 9.1697 20.5473C9.18403 20.5473 9.18403 20.5616 9.19836 20.5616C9.24135 20.5616 9.28434 20.5616 9.34166 20.5616C9.39899 20.5616 9.47064 20.5616 9.52796 20.576C9.54229 20.576 9.54229 20.5759 9.55662 20.5903C9.65694 20.5903 9.75724 20.6046 9.85756 20.6046C10.1728 20.6046 10.5024 20.6046 10.8177 20.6046C10.9037 20.6046 11.004 20.6046 11.09 20.5903C11.1043 20.5903 11.1043 20.576 11.1186 20.576C11.1186 20.576 11.1186 20.576 11.133 20.576C11.1903 20.5616 11.2476 20.5616 11.305 20.5616C11.5915 20.5186 11.8924 20.49 12.1791 20.4326C13.2969 20.2178 14.343 19.8309 15.3317 19.2577C15.991 18.8709 16.6072 18.4266 17.1661 17.8965C17.7966 17.3091 18.3412 16.6499 18.8141 15.9192C19.3443 15.0881 19.7455 14.1855 20.0178 13.2397C20.1611 12.7096 20.2758 12.1795 20.3331 11.6493C20.3187 11.4344 20.3331 11.4344 20.1038 11.4344ZM14.5293 12.9532C14.2857 13.7842 13.8987 14.5293 13.3112 15.1741C12.48 16.0911 11.4482 16.5353 10.2301 16.6356C9.39898 16.7073 8.56782 16.6499 7.77964 16.349C6.8625 16.0052 6.2033 15.3461 5.63009 14.5866C5.04253 13.7985 4.77026 12.8959 4.5553 11.9645C4.29736 10.8183 4.26869 9.6863 4.58397 8.55435C4.94223 7.26478 5.65875 6.19014 6.80518 5.45939C7.5217 5.00087 8.79711 4.67132 9.74292 4.67132C11.1759 4.65699 12.1934 5.34476 12.9386 6.5197C13.2109 6.93523 13.4258 7.37941 13.5405 7.8809C13.6265 8.2821 13.5548 8.42539 13.1536 8.52568C12.652 8.65464 12.4227 8.71195 11.9212 8.7836C10.1872 9.07017 8.1809 9.34241 6.44692 9.61466C6.36094 9.62898 6.30362 9.65764 6.31795 9.75793C6.40393 11.3914 6.79085 12.8959 8.05192 14.0565C9.52796 15.432 11.5772 15.1311 12.8096 14.0995C13.2969 13.6983 13.6551 13.2111 13.8701 12.6093C13.9274 12.4516 14.0277 12.4087 14.1996 12.466C14.2284 12.4803 14.2713 12.4946 14.2999 12.4946C14.5866 12.6093 14.6152 12.638 14.5293 12.9532Z" fill="#60BB46"/>
<path d="M14.2847 12.4946C14.256 12.4803 14.2274 12.466 14.1844 12.466C14.0124 12.4087 13.9121 12.4516 13.8548 12.6092C13.6398 13.2111 13.2815 13.6982 12.7944 14.0994C11.5619 15.1311 9.52699 15.4319 8.03664 14.0564C6.77555 12.8958 6.38864 11.3769 6.30266 9.75785C6.30266 9.65756 6.34564 9.6289 6.43163 9.61457C8.16561 9.34232 10.1719 9.07008 11.9058 8.78352C12.4074 8.69754 12.6367 8.65456 13.1383 8.5256C13.5395 8.4253 13.6112 8.26769 13.5252 7.88082C13.4106 7.39365 13.1956 6.94947 12.9233 6.51961C12.1781 5.34467 11.1607 4.65691 9.72763 4.67124C8.78182 4.67124 7.52074 5.0008 6.78989 5.45931C5.64346 6.19006 4.92694 7.25036 4.56867 8.55426C4.26774 9.68621 4.28206 10.8181 4.54001 11.9644C4.75497 12.9101 5.02725 13.8129 5.6148 14.5865C6.18801 15.3459 6.84721 16.005 7.76436 16.349C8.55253 16.6498 9.3837 16.6928 10.2149 16.6355C11.4329 16.5495 12.4647 16.091 13.2959 15.174C13.8835 14.5292 14.2704 13.7842 14.514 12.9531C14.6143 12.6378 14.5856 12.6092 14.2847 12.4946ZM6.58927 8.64023C6.67525 8.06709 6.77556 7.50828 7.06217 6.99245C7.44909 6.27603 8.02231 5.77453 8.83914 5.61691C9.84227 5.41633 10.6161 5.81751 11.089 6.80618C11.218 7.07842 11.3183 7.37932 11.3613 7.66589C11.3613 7.83783 11.2753 7.90947 11.1607 7.98112C10.9743 8.09574 10.7594 8.1244 10.5588 8.15306C9.28338 8.35366 8.02231 8.55426 6.7469 8.76919C6.60359 8.79785 6.57494 8.78352 6.58927 8.64023Z" fill="white"/>
<path d="M11.3628 7.68103C11.3628 7.85297 11.2769 7.92461 11.1622 7.99625C10.976 8.11088 10.761 8.13954 10.5604 8.16819C9.28495 8.36879 8.02388 8.56939 6.74847 8.78432C6.61949 8.79864 6.57651 8.78432 6.60517 8.64103C6.69115 8.0679 6.79146 7.50908 7.07807 6.99325C7.465 6.27683 8.03821 5.77534 8.85504 5.61772C9.85818 5.41713 10.6321 5.81832 11.1049 6.80698C11.2195 7.10789 11.3055 7.39445 11.3628 7.68103Z" fill="#60BB46"/>
</g>
<defs>
<clipPath id="clip0_818_195">
<rect width="77" height="27" fill="white"/>
</clipPath>
</defs>
</svg>
