<svg width="24" height="24" viewBox="0 0 24 24" fill="none" xmlns="http://www.w3.org/2000/svg">
<path d="M1 12L12 1L23 12M3.75 9.9375V21.625C3.75 21.9897 3.89487 22.3394 4.15273 22.5973C4.41059 22.8551 4.76033 23 5.125 23H9.25V18.875C9.25 18.5103 9.39487 18.1606 9.65273 17.9027C9.91059 17.6449 10.2603 17.5 10.625 17.5H13.375C13.7397 17.5 14.0894 17.6449 14.3473 17.9027C14.6051 18.1606 14.75 18.5103 14.75 18.875V23H18.875C19.2397 23 19.5894 22.8551 19.8473 22.5973C20.1051 22.3394 20.25 21.9897 20.25 21.625V9.9375" stroke="#7D7D7D" stroke-width="2" stroke-linecap="round" stroke-linejoin="round"/>
</svg>
