<svg width="77" height="30" viewBox="0 0 77 30" fill="none" xmlns="http://www.w3.org/2000/svg">
<g clip-path="url(#clip0_817_157)">
<path d="M34.963 0.584074C34.6508 0.238941 34.2606 0.0531006 33.7663 0.0531006H6.81633C6.32208 0.0531006 5.90586 0.238941 5.61971 0.584074C5.30755 0.929207 5.17748 1.35399 5.25552 1.85841L7.18052 20.7345C7.28458 21.8496 8.19505 23.2301 9.10552 23.8142L18.6265 29.5487C19.0687 29.8142 19.693 29.9735 20.3173 29.9735C20.9677 29.9735 21.566 29.8142 22.0082 29.5487L31.5292 23.8142C32.4657 23.2832 33.3241 21.8496 33.4542 20.7345L35.3792 1.85841C35.3792 1.40708 35.2751 0.929207 34.963 0.584074ZM27.1589 21.5044C26.3785 22.0354 25.338 21.823 24.8177 21.0531L19.9532 13.7522L17.0136 16.7522V20.0708C17.0136 21.0266 16.2592 21.7965 15.3228 21.7965C14.3863 21.7965 13.6319 21.0266 13.6319 20.0708V5.68142C13.6319 4.72567 14.3863 3.95576 15.3228 3.95576C16.2592 3.95576 17.0136 4.72567 17.0136 5.68142V11.8673L24.2714 4.46018C24.9217 3.79646 26.0143 3.79646 26.6646 4.46018C27.315 5.1239 27.315 6.23894 26.6646 6.90266L22.3724 11.2566C22.3724 11.2832 22.3984 11.2832 22.3984 11.3097L27.6011 19.0885C28.1214 19.885 27.9133 20.9469 27.1589 21.5044Z" fill="#5D2E8E"/>
<path fill-rule="evenodd" clip-rule="evenodd" d="M77.0006 6.90265V18.9292C77.0006 20.5487 75.6999 21.8761 74.1131 21.8761H34.8066L34.9107 20.6018H74.1131C74.9975 20.6018 75.7519 19.8319 75.7519 18.9292V6.84955C75.7519 5.9469 74.9975 5.17699 74.1131 5.17699H36.4975L36.6016 3.90265H74.1131C75.6999 3.90265 77.0006 5.23008 77.0006 6.90265Z" fill="#5D2E8E"/>
<path fill-rule="evenodd" clip-rule="evenodd" d="M39.7755 9.63719C39.7755 9.45134 39.6715 9.3717 39.5154 9.3717H38.9951V8.2832H40.1917C40.764 8.2832 41.0242 8.4425 41.0242 9.05311V13.3275H41.5965C41.8306 13.3275 42.1167 13.2478 42.2728 13.062L43.7816 10.9381H45.1863L43.4434 13.354C43.1313 13.7257 42.9492 13.8584 42.9492 13.8584V13.885C42.9492 13.885 43.1833 13.9646 43.3654 14.3894L44.3019 16.1682C44.4059 16.354 44.536 16.4336 44.8742 16.4336H45.2384V17.4956H44.3279C43.7296 17.4956 43.5475 17.3894 43.2613 16.885L42.0907 14.6814C41.9346 14.4425 41.6745 14.4159 41.4404 14.4159H40.9461V17.5221H39.6975L39.7755 9.63719Z" fill="#5D2E8E"/>
<path fill-rule="evenodd" clip-rule="evenodd" d="M46.5128 9.66374C46.5128 9.4779 46.4088 9.39825 46.2527 9.39825H45.7324V8.30975H46.929C47.5013 8.30975 47.7615 8.54869 47.7615 9.10621V11.6814C47.7615 12 47.7355 12.2124 47.7355 12.2124H47.7615C48.0216 11.5487 48.854 10.7522 50.1287 10.7522C51.6375 10.7522 52.3138 11.6018 52.3138 13.3009V16.1416C52.3138 16.3275 52.4179 16.4071 52.574 16.4071H53.0942V17.469H51.8976C51.3253 17.469 51.0652 17.2301 51.0652 16.6195V13.5929C51.0652 12.6637 50.8831 11.9469 49.8686 11.9469C48.8801 11.9469 48.0997 12.6372 47.8395 13.5664C47.7615 13.8319 47.7355 14.1505 47.7355 14.4425V17.5221H46.4868L46.5128 9.66374Z" fill="#5D2E8E"/>
<path d="M56.4501 16.646C57.5166 16.646 58.193 15.531 58.193 14.5752V14.3363H57.8808C56.9443 14.3363 55.2795 14.3628 55.2795 15.6106C55.2274 16.1681 55.6436 16.646 56.4501 16.646ZM57.8808 13.4336H58.1409V13.354C58.1409 12.2124 57.7247 11.7876 56.7102 11.7876C56.398 11.7876 55.6436 11.8672 55.6436 12.292V12.6637H54.473V12C54.473 10.9115 56.0859 10.7787 56.6842 10.7787C58.7653 10.7787 59.3116 11.8938 59.3116 13.354V16.1681C59.3116 16.354 59.4156 16.4602 59.5717 16.4602H60.092V17.5221H58.9214C58.3491 17.5221 58.1409 17.2566 58.1409 16.7522C58.1409 16.5133 58.167 16.3805 58.167 16.3805H58.1409C58.1409 16.3805 57.6207 17.6814 56.1119 17.6814C55.0193 17.6814 53.9268 16.9911 53.9268 15.6903C53.9788 13.5929 56.8143 13.4336 57.8808 13.4336Z" fill="#5D2E8E"/>
<path fill-rule="evenodd" clip-rule="evenodd" d="M61.1846 9.45135H60.6123V8.36285H61.8089C62.3812 8.36285 62.6414 8.60179 62.6414 9.21241V16.1682C62.6414 16.354 62.7454 16.4337 62.9015 16.4337H63.4218V17.4956H62.2251C61.6528 17.4956 61.3927 17.2567 61.3927 16.646V9.71684C61.4187 9.71684 61.4447 9.45135 61.1846 9.45135Z" fill="#5D2E8E"/>
<path fill-rule="evenodd" clip-rule="evenodd" d="M64.8266 11.9469H63.9941V10.9381H64.8526V9.1062H66.0492V10.9381H67.584V11.9469H66.0752V14.9469C66.0752 16.2478 66.9597 16.4602 67.4019 16.4602C67.584 16.4602 67.7141 16.4602 67.7141 16.4602V17.4956C67.7141 17.4956 67.558 17.5221 67.2979 17.5221C66.4654 17.5221 64.8526 17.2566 64.8526 15.0531V11.9469H64.8266Z" fill="#5D2E8E"/>
<path fill-rule="evenodd" clip-rule="evenodd" d="M69.7166 8.3363H70.497C70.5751 8.3363 70.6531 8.41595 70.6531 8.4956V9.4779C70.6531 9.55754 70.5751 9.63719 70.497 9.63719H69.7166C69.6386 9.63719 69.5605 9.55754 69.5605 9.4779V8.4956C69.5605 8.3894 69.6126 8.3363 69.7166 8.3363Z" fill="#5D2E8E"/>
<path fill-rule="evenodd" clip-rule="evenodd" d="M69.5089 12.292C69.5089 12.1062 69.4049 12.0265 69.2488 12.0265H68.7285V10.938H69.9251C70.4974 10.938 70.7576 11.177 70.7576 11.7876V16.1681C70.7576 16.354 70.8616 16.4336 71.0177 16.4336H71.538V17.4956H70.3414C69.7691 17.4956 69.5089 17.2566 69.5089 16.646V12.292Z" fill="#5D2E8E"/>
<path fill-rule="evenodd" clip-rule="evenodd" d="M3.24177 4.9971L0.112679 5.76482L2.30553 15.2222L5.23393 14.5313L3.24177 4.9971Z" fill="#F9A61C"/>
<path d="M4.28166 4.82065L0.0400391 5.34479L1.11129 15.4174L5.35291 14.8932L4.28166 4.82065Z" fill="#F9A61C"/>
</g>
<defs>
<clipPath id="clip0_817_157">
<rect width="77" height="30" fill="white"/>
</clipPath>
</defs>
</svg>
