<svg width="20" height="22" viewBox="0 0 20 22" fill="none" xmlns="http://www.w3.org/2000/svg">
<path fill-rule="evenodd" clip-rule="evenodd" d="M4.28613 5.17647C4.28613 6.54936 4.88817 7.86601 5.95981 8.83679C7.03144 9.80756 8.4849 10.3529 10.0004 10.3529C11.5159 10.3529 12.9694 9.80756 14.041 8.83679C15.1127 7.86601 15.7147 6.54936 15.7147 5.17647C15.7147 3.80359 15.1127 2.48693 14.041 1.51615C12.9694 0.545377 11.5159 0 10.0004 0C8.4849 0 7.03144 0.545377 5.95981 1.51615C4.88817 2.48693 4.28613 3.80359 4.28613 5.17647ZM12.8576 5.17647C12.8576 5.86291 12.5565 6.52124 12.0207 7.00663C11.4849 7.49202 10.7582 7.76471 10.0004 7.76471C9.24266 7.76471 8.51593 7.49202 7.98011 7.00663C7.4443 6.52124 7.14328 5.86291 7.14328 5.17647C7.14328 4.49003 7.4443 3.8317 7.98011 3.34631C8.51593 2.86092 9.24266 2.58824 10.0004 2.58824C10.7582 2.58824 11.4849 2.86092 12.0207 3.34631C12.5565 3.8317 12.8576 4.49003 12.8576 5.17647Z" fill="#7D7D7D" fill-opacity="0.75"/>
<path d="M20 20.7059C20 21.0491 19.8495 21.3783 19.5816 21.621C19.3137 21.8637 18.9503 22 18.5714 22C18.1925 22 17.8292 21.8637 17.5613 21.621C17.2934 21.3783 17.1429 21.0491 17.1429 20.7059V17.4706C17.1429 14.2431 13.9914 11.6471 10.0229 11.6471C6.04286 11.6471 2.85714 14.2521 2.85714 17.4706L2.86 20.7059C2.86 21.0491 2.70949 21.3783 2.44158 21.621C2.17367 21.8637 1.81031 22 1.43143 22C1.05255 22 0.689185 21.8637 0.421276 21.621C0.153367 21.3783 0.00285728 21.0491 0.00285728 20.7059L0 17.4706C0 12.76 4.52714 9.05882 10.0229 9.05882C15.5143 9.05882 20 12.7561 20 17.4706V20.7059Z" fill="#7D7D7D" fill-opacity="0.75"/>
</svg>
