<svg width="20" height="24" viewBox="0 0 20 24" fill="none" xmlns="http://www.w3.org/2000/svg">
<path fill-rule="evenodd" clip-rule="evenodd" d="M4.01161 6.10164V5.95129C4.01161 4.37291 4.64255 2.85918 5.76564 1.74309C6.88873 0.627009 8.41196 0 10.0002 0C11.5885 0 13.1118 0.627009 14.2348 1.74309C15.3579 2.85918 15.9889 4.37291 15.9889 5.95129V6.10164H17.8813C18.6012 6.10164 19.2127 6.62661 19.3186 7.3345L19.5934 9.20508C20.1355 12.8861 20.1355 16.6273 19.5934 20.3083C19.466 21.1726 19.0523 21.9701 18.4178 22.5746C17.7833 23.179 16.9641 23.5561 16.0897 23.6461L15.2967 23.7275C11.7752 24.0908 8.22529 24.0908 4.70377 23.7275L3.91075 23.6461C3.03642 23.5561 2.21722 23.179 1.58268 22.5746C0.948138 21.9701 0.534469 21.1726 0.407083 20.3083C-0.135694 16.6269 -0.135694 12.8865 0.407083 9.20508L0.683191 7.3345C0.733745 6.99191 0.906647 6.67883 1.17031 6.45248C1.43397 6.22612 1.77078 6.10159 2.1192 6.10164H4.01161ZM8.97902 2.0084C9.58433 1.8536 10.2172 1.83846 10.8293 1.96414C11.4414 2.08982 12.0165 2.353 12.5105 2.73352C13.0045 3.11404 13.4044 3.60183 13.6795 4.15956C13.9546 4.71728 14.0976 5.33016 14.0977 5.95129V6.10164H5.90276V5.95129C5.90288 5.0481 6.20517 4.17059 6.76206 3.45681C7.31896 2.74303 8.09885 2.23351 8.97902 2.0084ZM4.01161 7.981V10.8C4.01161 11.0492 4.11123 11.2883 4.28856 11.4645C4.46589 11.6407 4.7064 11.7397 4.95718 11.7397C5.20797 11.7397 5.44848 11.6407 5.62581 11.4645C5.80313 11.2883 5.90276 11.0492 5.90276 10.8V7.981H14.0977V10.8C14.0977 11.0492 14.1974 11.2883 14.3747 11.4645C14.552 11.6407 14.7925 11.7397 15.0433 11.7397C15.2941 11.7397 15.5346 11.6407 15.7119 11.4645C15.8893 11.2883 15.9889 11.0492 15.9889 10.8V7.981H17.5018L17.7224 9.47696C18.2381 12.9781 18.2381 16.5353 17.7224 20.0364C17.6561 20.4875 17.4403 20.9036 17.1092 21.2191C16.7781 21.5345 16.3506 21.7312 15.8943 21.778L15.1013 21.8582C11.7098 22.209 8.29065 22.209 4.89919 21.8582L4.10491 21.7767C3.64887 21.7297 3.22164 21.5329 2.89078 21.2175C2.55992 20.9021 2.34431 20.486 2.27806 20.0352C1.76197 16.5345 1.76197 12.9777 2.27806 9.47696L2.49869 7.981H4.01161Z" fill="#7D7D7D"/>
</svg>
