<svg width="15" height="20" viewBox="0 0 15 20" fill="none" xmlns="http://www.w3.org/2000/svg">
<path d="M12.8593 13.244L12.8571 19.245C12.8571 19.3824 12.8167 19.5171 12.7402 19.6345C12.6637 19.7519 12.5542 19.8475 12.4235 19.9107C12.2928 19.974 12.1461 20.0025 11.9992 19.9932C11.8523 19.9839 11.711 19.9371 11.5907 19.858L7.5 17.171L3.41036 19.858C3.29003 19.9369 3.14884 19.9834 3.00214 19.9925C2.85544 20.0017 2.70887 19.9731 2.57837 19.9099C2.44788 19.8467 2.33847 19.7512 2.26206 19.634C2.18564 19.5168 2.14515 19.3822 2.145 19.245L2.14286 13.245C3.66184 14.3832 5.55209 15.0024 7.5 15C9.44878 15.0026 11.3399 14.3829 12.8593 13.244ZM7.5 0C9.48912 0 11.3968 0.737498 12.8033 2.05025C14.2098 3.36301 15 5.14348 15 7C15 8.85652 14.2098 10.637 12.8033 11.9497C11.3968 13.2625 9.48912 14 7.5 14C5.51088 14 3.60322 13.2625 2.1967 11.9497C0.790176 10.637 0 8.85652 0 7C0 5.14348 0.790176 3.36301 2.1967 2.05025C3.60322 0.737498 5.51088 0 7.5 0Z" fill="black"/>
</svg>
