<svg width="22" height="22" viewBox="0 0 22 22" fill="none" xmlns="http://www.w3.org/2000/svg">
<path d="M11 19.25C8.89167 19.25 7.05467 18.5512 5.489 17.1536C3.92333 15.756 3.02561 14.0103 2.79583 11.9167H4.675C4.88889 13.5056 5.59564 14.8194 6.79525 15.8583C7.99486 16.8972 9.39644 17.4167 11 17.4167C12.7875 17.4167 14.304 16.7942 15.5494 15.5494C16.7949 14.3046 17.4173 12.7881 17.4167 11C17.4161 9.21189 16.7936 7.69572 15.5494 6.4515C14.3052 5.20728 12.7887 4.58456 11 4.58333C9.94583 4.58333 8.96042 4.82778 8.04375 5.31667C7.12708 5.80556 6.35556 6.47778 5.72917 7.33333H8.25V9.16667H2.75V3.66667H4.58333V5.82083C5.3625 4.84306 6.31369 4.08681 7.43692 3.55208C8.56014 3.01736 9.74783 2.75 11 2.75C12.1458 2.75 13.2192 2.96786 14.2203 3.40358C15.2212 3.83931 16.0921 4.42719 16.8328 5.16725C17.5734 5.90731 18.1616 6.77814 18.5973 7.77975C19.0331 8.78136 19.2506 9.85478 19.25 11C19.2494 12.1452 19.0318 13.2186 18.5973 14.2202C18.1628 15.2219 17.5746 16.0927 16.8328 16.8327C16.0909 17.5728 15.22 18.161 14.2203 18.5973C13.2205 19.0337 12.1471 19.2512 11 19.25ZM13.5667 14.85L10.0833 11.3667V6.41667H11.9167V10.6333L14.85 13.5667L13.5667 14.85Z" fill="black"/>
</svg>
