<svg width="9" height="13" viewBox="0 0 9 13" fill="none" xmlns="http://www.w3.org/2000/svg">
<path d="M9 4.37711C9 3.82446 8.8836 3.27723 8.65746 2.76665C8.43131 2.25607 8.09984 1.79214 7.68198 1.40136C7.26412 1.01058 6.76804 0.700593 6.22208 0.489104C5.67611 0.277614 5.09095 0.168762 4.5 0.168762C3.90905 0.168762 3.32389 0.277614 2.77792 0.489104C2.23196 0.700593 1.73588 1.01058 1.31802 1.40136C0.900156 1.79214 0.568688 2.25607 0.342542 2.76665C0.116396 3.27723 -8.80582e-09 3.82446 0 4.37711C0 5.21096 0.262929 5.9865 0.710357 6.6406H0.705214L4.5 12.1926L8.29479 6.6406H8.29029C8.7537 5.96521 9.00003 5.17959 9 4.37711ZM4.5 6.18069C3.98851 6.18069 3.49797 5.99067 3.13629 5.65243C2.77462 5.3142 2.57143 4.85545 2.57143 4.37711C2.57143 3.89877 2.77462 3.44002 3.13629 3.10179C3.49797 2.76355 3.98851 2.57353 4.5 2.57353C5.01149 2.57353 5.50203 2.76355 5.86371 3.10179C6.22538 3.44002 6.42857 3.89877 6.42857 4.37711C6.42857 4.85545 6.22538 5.3142 5.86371 5.65243C5.50203 5.99067 5.01149 6.18069 4.5 6.18069Z" fill="#7C7A7A"/>
</svg>
