<svg width="17" height="15" viewBox="0 0 17 15" fill="none" xmlns="http://www.w3.org/2000/svg">
<path fill-rule="evenodd" clip-rule="evenodd" d="M14.8894 7.22586C15.5386 6.54947 15.8993 5.63626 15.8921 4.68712C15.8848 3.73798 15.5103 2.83066 14.8508 2.16476C14.5243 1.83504 14.1376 1.57452 13.7129 1.39806C13.2882 1.22161 12.8338 1.13268 12.3755 1.13635C11.4501 1.14377 10.5655 1.52793 9.91625 2.20431C9.73995 2.38514 9.5159 2.60708 9.24411 2.87015L8.48841 3.60002L7.73271 2.87015C7.4603 2.60645 7.23595 2.38451 7.05965 2.20431C6.40529 1.53317 5.51778 1.15613 4.59237 1.15613C3.66697 1.15613 2.77946 1.53317 2.1251 2.20431C0.777144 3.58778 0.761534 5.8245 2.07552 7.21455L8.48841 13.7919L14.8894 7.22586ZM1.34553 1.40569C1.77187 0.9683 2.27804 0.621336 2.83514 0.384615C3.39225 0.147895 3.98936 0.0260548 4.59237 0.0260548C5.19539 0.0260548 5.7925 0.147895 6.3496 0.384615C6.90671 0.621336 7.41288 0.9683 7.83922 1.40569C8.00634 1.57772 8.22274 1.79182 8.48841 2.04798C8.75286 1.79182 8.96925 1.57741 9.1376 1.40475C9.99202 0.514929 11.1561 0.0096748 12.3737 0.000137498C13.5913 -0.00939981 14.7628 0.47756 15.6304 1.35389C16.4979 2.23022 16.9906 3.42414 16.9999 4.673C17.0092 5.92186 16.5344 7.12336 15.68 8.01318L9.1376 14.7243C8.9654 14.9008 8.73189 15 8.48841 15C8.24493 15 8.01142 14.9008 7.83922 14.7243L1.29502 8.01224C0.455802 7.12452 -0.00930795 5.93387 0.000141209 4.69741C0.00959037 3.46095 0.49284 2.27792 1.34553 1.40381V1.40569Z" fill="#7D7D7D"/>
</svg>
