<svg width="20" height="20" viewBox="0 0 20 20" fill="none" xmlns="http://www.w3.org/2000/svg">
<circle cx="10" cy="10" r="10" fill="#D9D9D9"/>
<path d="M10.0003 9.10327C9.5141 9.10327 9.04778 9.29334 8.70396 9.63166C8.36015 9.96999 8.16699 10.4288 8.16699 10.9073C8.16699 11.3858 8.36015 11.8446 8.70396 12.183C9.04778 12.5213 9.5141 12.7114 10.0003 12.7114C10.4866 12.7114 10.9529 12.5213 11.2967 12.183C11.6405 11.8446 11.8337 11.3858 11.8337 10.9073C11.8337 10.4288 11.6405 9.96999 11.2967 9.63166C10.9529 9.29334 10.4866 9.10327 10.0003 9.10327ZM9.21461 10.9073C9.21461 10.7023 9.29739 10.5056 9.44474 10.3606C9.59209 10.2156 9.79194 10.1342 10.0003 10.1342C10.2087 10.1342 10.4086 10.2156 10.5559 10.3606C10.7033 10.5056 10.786 10.7023 10.786 10.9073C10.786 11.1124 10.7033 11.309 10.5559 11.454C10.4086 11.599 10.2087 11.6805 10.0003 11.6805C9.79194 11.6805 9.59209 11.599 9.44474 11.454C9.29739 11.309 9.21461 11.1124 9.21461 10.9073Z" fill="white"/>
<path d="M12.8946 5.29729L11.2294 2.99998L5.10657 7.81316L4.76714 7.80955V7.8147H4.5V14H15.5V7.8147H14.9961L13.9935 4.92875L12.8946 5.29729ZM13.8893 7.8147H8.63652L12.5489 6.50239L13.3461 6.25137L13.8893 7.8147ZM11.8595 5.6447L7.82095 6.99928L11.0193 4.48496L11.8595 5.6447ZM5.54762 12.0253V9.78832C5.76876 9.71152 5.96963 9.58699 6.13549 9.42386C6.30136 9.26074 6.42802 9.06315 6.50619 8.84558H13.4938C13.5719 9.06324 13.6985 9.26093 13.8644 9.42415C14.0303 9.58737 14.2312 9.71198 14.4524 9.78884V12.0258C14.2312 12.1027 14.0303 12.2273 13.8644 12.3905C13.6985 12.5537 13.5719 12.7514 13.4938 12.9691H6.50724C6.42876 12.7514 6.30189 12.5537 6.13587 12.3904C5.96985 12.2272 5.76888 12.1024 5.54762 12.0253Z" fill="white"/>
<line x1="14.9231" y1="1.38458" x2="7.32692" y2="19.6153" stroke="white" stroke-width="2"/>
</svg>
