<svg width="21" height="16" viewBox="0 0 21 16" fill="none" xmlns="http://www.w3.org/2000/svg">
<path d="M6.48568 7.7037C7.5505 7.7037 8.57172 7.29788 9.32467 6.57552C10.0776 5.85316 10.5006 4.87343 10.5006 3.85185C10.5006 2.83028 10.0776 1.85054 9.32467 1.12818C8.57172 0.405819 7.5505 0 6.48568 0C5.42085 0 4.39963 0.405819 3.64668 1.12818C2.89373 1.85054 2.47073 2.83028 2.47073 3.85185C2.47073 4.87343 2.89373 5.85316 3.64668 6.57552C4.39963 7.29788 5.42085 7.7037 6.48568 7.7037ZM13.5112 13.8015C14.1659 14.0587 14.9986 14.2222 16.0585 14.2222C21 14.2222 21 10.6667 21 10.6667C21 10.1954 20.8049 9.74337 20.4577 9.41001C20.1104 9.07664 19.6394 8.8892 19.1482 8.88889H13.4309C13.9164 9.45304 14.208 10.1748 14.208 10.963V11.3849C14.2053 11.4847 14.1983 11.5843 14.187 11.6836C14.1028 12.4239 13.8728 13.1424 13.5112 13.8015ZM19.1482 4.74074C19.1482 5.52657 18.8228 6.28021 18.2436 6.83587C17.6644 7.39154 16.8789 7.7037 16.0598 7.7037C15.2407 7.7037 14.4551 7.39154 13.8759 6.83587C13.2967 6.28021 12.9714 5.52657 12.9714 4.74074C12.9714 3.95491 13.2967 3.20127 13.8759 2.64561C14.4551 2.08995 15.2407 1.77778 16.0598 1.77778C16.8789 1.77778 17.6644 2.08995 18.2436 2.64561C18.8228 3.20127 19.1482 3.95491 19.1482 4.74074ZM0 11.2593C0 10.6306 0.260309 10.0277 0.723661 9.58315C1.18701 9.13862 1.81545 8.88889 2.47073 8.88889H10.5006C11.1559 8.88889 11.7843 9.13862 12.2477 9.58315C12.711 10.0277 12.9714 10.6306 12.9714 11.2593C12.9714 11.2593 12.9714 16 6.48568 16C0 16 0 11.2593 0 11.2593Z" fill="black"/>
</svg>
