<svg width="18" height="18" viewBox="0 0 18 18" fill="none" xmlns="http://www.w3.org/2000/svg">
<path d="M9 14.5521L4.77526 17.7575C4.56593 17.9277 4.33756 18.0083 4.09017 17.9992C3.84277 17.9901 3.62392 17.919 3.43362 17.7859C3.24332 17.6527 3.09602 17.4731 2.99174 17.2469C2.88745 17.0207 2.8825 16.7749 2.97689 16.5094L4.60399 11.2616L0.464884 8.33979C0.23652 8.18851 0.0937924 7.98994 0.0367014 7.74409C-0.0203897 7.49825 -0.0108744 7.27132 0.065247 7.0633C0.141368 6.85527 0.274581 6.6707 0.464884 6.50958C0.655188 6.34846 0.883552 6.26827 1.14998 6.26903H6.25963L7.91527 0.822638C8.01042 0.557883 8.1581 0.3544 8.3583 0.212188C8.5585 0.069977 8.7724 -0.00075044 9 6.00352e-06C9.2276 0.000762447 9.44188 0.0718683 9.64285 0.213323C9.84381 0.354778 9.9911 0.557883 10.0847 0.822638L11.7404 6.26903H16.85C17.1164 6.26903 17.3448 6.34959 17.5351 6.51071C17.7254 6.67184 17.8586 6.85603 17.9348 7.0633C18.0109 7.27056 18.0204 7.49749 17.9633 7.74409C17.9062 7.9907 17.7635 8.18926 17.5351 8.33979L13.396 11.2616L15.0231 16.5094C15.1183 16.7741 15.1137 17.02 15.0094 17.2469C14.9051 17.4738 14.7574 17.6535 14.5664 17.7859C14.3753 17.9183 14.1565 17.9894 13.9098 17.9992C13.6632 18.009 13.4348 17.9285 13.2247 17.7575L9 14.5521Z" fill="black"/>
</svg>
