<svg width="18" height="17" viewBox="0 0 18 17" fill="none" xmlns="http://www.w3.org/2000/svg">
<path d="M3.2904 16.7711C3.16118 16.8876 3.00258 16.9634 2.83323 16.9897C2.66388 17.016 2.4908 16.9917 2.33432 16.9196C2.17784 16.8475 2.04444 16.7307 1.9498 16.5827C1.85515 16.4348 1.80319 16.262 1.8 16.0845V13.9922C1.32261 13.9922 0.864773 13.7957 0.527208 13.4458C0.189642 13.0959 0 12.6214 0 12.1266V5.5969C0 5.1021 0.189642 4.62757 0.527208 4.27769C0.864773 3.92782 1.32261 3.73126 1.8 3.73126H11.7C12.1774 3.73126 12.6352 3.92782 12.9728 4.27769C13.3104 4.62757 13.5 5.1021 13.5 5.5969V12.1266C13.5 12.6214 13.3104 13.0959 12.9728 13.4458C12.6352 13.7957 12.1774 13.9922 11.7 13.9922H7.2027L3.2904 16.7711ZM14.4 9.34402C14.3971 9.45873 14.3971 9.57351 14.4 9.68822V9.34402ZM14.4 9.34402C14.4045 9.24421 14.4054 7.99423 14.4036 5.59503C14.4029 4.85332 14.1181 4.14224 13.6118 3.61804C13.1056 3.09383 12.4192 2.79938 11.7036 2.79938H4.5V1.86563C4.5 1.37084 4.68964 0.896305 5.02721 0.546431C5.36477 0.196557 5.82261 0 6.3 0L16.2 0C16.6774 0 17.1352 0.196557 17.4728 0.546431C17.8104 0.896305 18 1.37084 18 1.86563V8.39534C18 8.89014 17.8104 9.36467 17.4728 9.71454C17.1352 10.0644 16.6774 10.261 16.2 10.261V12.3533C16.1968 12.5307 16.1448 12.7036 16.0502 12.8515C15.9556 12.9994 15.8222 13.1163 15.6657 13.1883C15.5092 13.2604 15.3361 13.2847 15.1668 13.2584C14.9974 13.2321 14.8388 13.1563 14.7096 13.0398L14.4 12.8197V9.34402Z" fill="black"/>
</svg>
