<svg width="14" height="16" viewBox="0 0 14 16" fill="none" xmlns="http://www.w3.org/2000/svg">
<path d="M11.9428 16C11.3718 16 10.8857 15.7951 10.4844 15.3853C10.083 14.9766 9.88235 14.4797 9.88235 13.8947C9.88235 13.7825 9.89169 13.6665 9.91035 13.5469C9.92957 13.4268 9.95812 13.3137 9.996 13.2076L3.62023 9.36674C3.41874 9.59916 3.18431 9.78021 2.91694 9.90989C2.64957 10.0396 2.36353 10.1047 2.05882 10.1053C1.48674 10.1053 1.00086 9.90091 0.601176 9.49221C0.200392 9.08295 0 8.58611 0 8.00168C0 7.41726 0.200392 6.92014 0.601176 6.51032C1.00196 6.10049 1.48784 5.8953 2.05882 5.89474C2.36408 5.89474 2.65012 5.95986 2.91694 6.09011C3.18376 6.22035 3.4182 6.4014 3.62023 6.63326L9.99682 2.79158C9.95839 2.68604 9.92984 2.57319 9.91117 2.45305C9.89196 2.33347 9.88235 2.21754 9.88235 2.10526C9.88235 1.52028 10.0825 1.02344 10.4827 0.614737C10.8824 0.204912 11.368 0 11.9395 0C12.5111 0 12.9972 0.204632 13.398 0.613895C13.7988 1.02316 13.9994 1.51972 14 2.10358C14.0005 2.68744 13.8002 3.18456 13.3988 3.59495C12.9997 4.00533 12.5138 4.21053 11.9412 4.21053C11.6359 4.21053 11.3499 4.1454 11.0831 4.01516C10.8162 3.88491 10.5818 3.70386 10.3798 3.472L4.004 7.31368C4.04188 7.41923 4.07016 7.53151 4.08882 7.65053C4.10804 7.77011 4.11765 7.88547 4.11765 7.99663C4.11765 8.10779 4.10804 8.22428 4.08882 8.34611C4.06961 8.46793 4.04106 8.58161 4.00318 8.68716L10.3798 12.528C10.5813 12.2961 10.8157 12.1151 11.0831 11.9848C11.3504 11.8546 11.6365 11.7895 11.9412 11.7895C12.5133 11.7895 12.9991 11.9941 13.3988 12.4034C13.7996 12.8121 14 13.3086 14 13.8931C14 14.4775 13.8002 14.9746 13.4005 15.3844C13.0008 15.7942 12.5149 15.9994 11.9428 16ZM11.9412 3.36842C12.2799 3.36842 12.5706 3.24463 12.8133 2.99705C13.0554 2.74891 13.1765 2.45165 13.1765 2.10526C13.1765 1.75888 13.0554 1.46161 12.8133 1.21347C12.5706 0.965895 12.2799 0.842105 11.9412 0.842105C11.6024 0.842105 11.3117 0.965895 11.0691 1.21347C10.8269 1.46161 10.7059 1.75888 10.7059 2.10526C10.7059 2.45165 10.8269 2.74891 11.0691 2.99705C11.3117 3.24463 11.6024 3.36842 11.9412 3.36842ZM2.05882 9.26316C2.39757 9.26316 2.68827 9.13937 2.93094 8.89179C3.17306 8.64365 3.29412 8.34639 3.29412 8C3.29412 7.65361 3.17306 7.35635 2.93094 7.10821C2.68882 6.86007 2.39812 6.73628 2.05882 6.73684C1.71953 6.7374 1.42882 6.86119 1.18671 7.10821C0.944588 7.35635 0.823529 7.65361 0.823529 8C0.823529 8.34639 0.944588 8.64365 1.18671 8.89179C1.42882 9.13993 1.71953 9.26372 2.05882 9.26316ZM11.9412 15.1579C12.2799 15.1579 12.5706 15.0341 12.8133 14.7865C13.0554 14.5384 13.1765 14.2411 13.1765 13.8947C13.1765 13.5484 13.0554 13.2511 12.8133 13.0029C12.5706 12.7554 12.2799 12.6316 11.9412 12.6316C11.6024 12.6316 11.3117 12.7554 11.0691 13.0029C10.8269 13.2511 10.7059 13.5484 10.7059 13.8947C10.7059 14.2411 10.8269 14.5384 11.0691 14.7865C11.3117 15.0341 11.6024 15.1579 11.9412 15.1579Z" fill="black"/>
</svg>
