<svg width="22" height="22" viewBox="0 0 22 22" fill="none" xmlns="http://www.w3.org/2000/svg">
<path d="M16.5 8.25C17.0584 8.25002 17.6035 8.08005 18.063 7.7627C18.5224 7.44535 18.8744 6.99565 19.072 6.47342C19.2697 5.95118 19.3037 5.38114 19.1695 4.83912C19.0353 4.29709 18.7393 3.80876 18.3208 3.43906C17.9023 3.06936 17.3812 2.83581 16.8268 2.76948C16.2723 2.70314 15.7108 2.80716 15.217 3.06769C14.7231 3.32823 14.3202 3.73294 14.0619 4.22801C13.8036 4.72308 13.7022 5.28504 13.7711 5.83917L7.40939 9.02C7.02094 8.64541 6.53086 8.39339 6.00019 8.29533C5.46953 8.19727 4.92175 8.2575 4.42508 8.46854C3.92841 8.67957 3.5048 9.03207 3.20703 9.48212C2.90926 9.93218 2.75049 10.4599 2.75049 10.9995C2.75049 11.5392 2.90926 12.0669 3.20703 12.517C3.5048 12.967 3.92841 13.3195 4.42508 13.5306C4.92175 13.7416 5.46953 13.8018 6.00019 13.7038C6.53086 13.6057 7.02094 13.3537 7.40939 12.9791L13.7711 16.1599C13.6908 16.8036 13.8408 17.455 14.1944 17.9989C14.5479 18.5427 15.0824 18.9441 15.7033 19.132C16.3241 19.32 16.9915 19.2823 17.5873 19.0259C18.1831 18.7694 18.6691 18.3105 18.9594 17.7303C19.2496 17.1502 19.3254 16.4861 19.1734 15.8555C19.0214 15.2249 18.6513 14.6683 18.1286 14.2841C17.6059 13.8999 16.9642 13.7129 16.3169 13.756C15.6697 13.7992 15.0585 14.0698 14.5915 14.52L8.22981 11.3392C8.25752 11.1139 8.25752 10.8861 8.22981 10.6608L14.5915 7.48C15.0846 7.95667 15.7575 8.25 16.5 8.25Z" fill="black"/>
</svg>
