<svg width="22" height="20" viewBox="0 0 22 20" fill="none" xmlns="http://www.w3.org/2000/svg">
<path d="M1 1H2.70732L3.43902 4M3.43902 4L5.87805 14H18.561L21 4H3.43902Z" stroke="black" stroke-width="2" stroke-linecap="round" stroke-linejoin="round"/>
<path d="M5.87845 19C6.68668 19 7.34187 18.3284 7.34187 17.5C7.34187 16.6716 6.68668 16 5.87845 16C5.07023 16 4.41504 16.6716 4.41504 17.5C4.41504 18.3284 5.07023 19 5.87845 19Z" stroke="black" stroke-width="2" stroke-linecap="round" stroke-linejoin="round"/>
<path d="M18.5611 19C19.3693 19 20.0245 18.3284 20.0245 17.5C20.0245 16.6716 19.3693 16 18.5611 16C17.7528 16 17.0977 16.6716 17.0977 17.5C17.0977 18.3284 17.7528 19 18.5611 19Z" stroke="black" stroke-width="2" stroke-linecap="round" stroke-linejoin="round"/>
</svg>
