<svg width="13" height="12" viewBox="0 0 13 12" fill="none" xmlns="http://www.w3.org/2000/svg">
<path d="M3.9034 11.096C3.37732 11.43 2.70988 10.9619 2.84483 10.3535L3.45828 7.58799C3.51259 7.34317 3.43178 7.08801 3.24645 6.91907L1.17426 5.03021C0.724398 4.62014 0.976145 3.87096 1.58234 3.81576L4.24531 3.57329C4.5067 3.54949 4.7328 3.38147 4.831 3.13807L5.85133 0.608939C6.08699 0.0248182 6.91395 0.0247889 7.14964 0.608893L8.16985 3.13721C8.26805 3.38059 8.49415 3.54859 8.75551 3.57239L11.4177 3.81483C12.0239 3.87004 12.2756 4.61922 11.8258 5.02928L9.75361 6.91811C9.56824 7.08708 9.48745 7.3423 9.5418 7.58715L10.1557 10.3526C10.2908 10.961 9.62343 11.4293 9.09729 11.0954L6.87559 9.68534C6.6466 9.54001 6.35427 9.54003 6.12531 9.6854L3.9034 11.096Z" fill="#FFCA28"/>
</svg>
