<svg width="16" height="18" viewBox="0 0 16 18" fill="none" xmlns="http://www.w3.org/2000/svg">
<path d="M3.8 4.69231H6.6M3.8 9H12.2M3.8 11.4615H12.2M3.8 13.9231H6.6M2.4 17H13.6C13.9713 17 14.3274 16.8703 14.5899 16.6395C14.8525 16.4087 15 16.0957 15 15.7692V2.23077C15 1.90435 14.8525 1.5913 14.5899 1.36048C14.3274 1.12967 13.9713 1 13.6 1H2.4C2.0287 1 1.6726 1.12967 1.41005 1.36048C1.1475 1.5913 1 1.90435 1 2.23077V15.7692C1 16.0957 1.1475 16.4087 1.41005 16.6395C1.6726 16.8703 2.0287 17 2.4 17Z" stroke="black" stroke-width="1.5" stroke-linecap="round" stroke-linejoin="round"/>
<path d="M12.2001 4.99997C12.3934 4.99997 12.5501 4.86221 12.5501 4.69227C12.5501 4.52234 12.3934 4.38458 12.2001 4.38458C12.0068 4.38458 11.8501 4.52234 11.8501 4.69227C11.8501 4.86221 12.0068 4.99997 12.2001 4.99997Z" fill="#1A6489" stroke="black" stroke-width="1.5"/>
</svg>
